<?xml version="1.0" encoding="UTF-8" standalone="no"?>
<svg width="512" height="512" viewBox="0 0 512 512" xmlns="http://www.w3.org/2000/svg">
  <!-- Background circle with gradient -->
  <circle cx="256" cy="256" r="250" fill="url(#backgroundGradient)" />
  
 
  
  <!-- Electron orbits - abstract and dynamic -->
  <ellipse cx="256" cy="256" rx="200" ry="80" fill="none" stroke="url(#orbitGradient1)" stroke-width="6" transform="rotate(0 256 256)" />
  <ellipse cx="256" cy="256" rx="200" ry="80" fill="none" stroke="url(#orbitGradient2)" stroke-width="6" transform="rotate(60 256 256)" />
  <ellipse cx="256" cy="256" rx="200" ry="80" fill="none" stroke="url(#orbitGradient3)" stroke-width="6" transform="rotate(120 256 256)" />
  
  <!-- Electron particles -->
  <circle cx="456" cy="256" r="15" fill="#00FFFF" />
  <circle cx="56" cy="256" r="15" fill="#00FFFF" />
  
  <circle cx="326" cy="76" r="15" fill="#7DF9FF" />
  <circle cx="186" cy="436" r="15" fill="#7DF9FF" />
  
  <circle cx="186" cy="76" r="15" fill="#40E0D0" />
  <circle cx="326" cy="436" r="15" fill="#40E0D0" />
  
  <!-- M letter stylized in the nucleus -->
  <path d="M350 160 L350 190 L310 190 L310 360 L270 360 L270 190 L230 190 L230 360 L190 360 L190 190 L150 190 L150 160 L350 160" 
        fill="#FFFFFF" />
  
  <!-- Gradients -->
  <defs>
    <linearGradient id="backgroundGradient" x1="0%" y1="0%" x2="100%" y2="100%">
      <stop offset="0%" stop-color="#4B0082" />
      <stop offset="100%" stop-color="#1E3A8A" />
    </linearGradient>
    
    <linearGradient id="orbitGradient1" x1="0%" y1="0%" x2="100%" y2="0%">
      <stop offset="0%" stop-color="#FFFFFF" stop-opacity="0.2" />
      <stop offset="50%" stop-color="#FFFFFF" stop-opacity="0.8" />
      <stop offset="100%" stop-color="#FFFFFF" stop-opacity="0.2" />
    </linearGradient>
    
    <linearGradient id="orbitGradient2" x1="0%" y1="0%" x2="100%" y2="0%">
      <stop offset="0%" stop-color="#FFFFFF" stop-opacity="0.2" />
      <stop offset="50%" stop-color="#FFFFFF" stop-opacity="0.8" />
      <stop offset="100%" stop-color="#FFFFFF" stop-opacity="0.2" />
    </linearGradient>
    
    <linearGradient id="orbitGradient3" x1="0%" y1="0%" x2="100%" y2="0%">
      <stop offset="0%" stop-color="#FFFFFF" stop-opacity="0.2" />
      <stop offset="50%" stop-color="#FFFFFF" stop-opacity="0.8" />
      <stop offset="100%" stop-color="#FFFFFF" stop-opacity="0.2" />
    </linearGradient>
  </defs>
</svg> 