<?xml version="1.0" encoding="UTF-8" standalone="no"?>
<svg width="512" height="512" viewBox="0 0 512 512" xmlns="http://www.w3.org/2000/svg">
  <!-- Filters for glow effects -->
  <defs>
    <filter id="electronGlow" x="-50%" y="-50%" width="200%" height="200%">
      <feGaussianBlur stdDeviation="5" result="blur" />
      <feComposite in="SourceGraphic" in2="blur" operator="over" />
    </filter>
    
    <filter id="nucleusGlow" x="-30%" y="-30%" width="160%" height="160%">
      <feGaussianBlur stdDeviation="3" result="blur" />
      <feComposite in="SourceGraphic" in2="blur" operator="over" />
    </filter>
    
    <radialGradient id="nucleusGradient" cx="50%" cy="50%" r="50%" fx="50%" fy="50%">
      <stop offset="0%" stop-color="#56F5FF" stop-opacity="0.3" />
      <stop offset="100%" stop-color="#000000" stop-opacity="0" />
    </radialGradient>
  </defs>
  
  <!-- Background circle with solid color -->
  <circle cx="256" cy="256" r="250" fill="black" stroke="#56F5FF" stroke-width="2" />
  
  <!-- Electron orbits - abstract and dynamic -->
  <ellipse cx="256" cy="256" rx="200" ry="80" fill="none" stroke="#56F5FF" stroke-width="6" stroke-opacity="0.9" transform="rotate(0 256 256)" />
  <ellipse cx="256" cy="256" rx="200" ry="80" fill="none" stroke="#56F5FF" stroke-width="6" stroke-opacity="0.7" transform="rotate(60 256 256)" />
  <ellipse cx="256" cy="256" rx="200" ry="80" fill="none" stroke="#56F5FF" stroke-width="6" stroke-opacity="0.5" transform="rotate(120 256 256)" />
  
  <!-- Nucleus glow -->
  <circle cx="256" cy="256" r="100" fill="url(#nucleusGradient)" />
  
  <!-- Electron particles with glow -->
  <circle cx="456" cy="256" r="15" fill="#56F5FF" filter="url(#electronGlow)" />
  <circle cx="56" cy="256" r="15" fill="#56F5FF" filter="url(#electronGlow)" />
  
  <circle cx="326" cy="76" r="15" fill="#56F5FF" filter="url(#electronGlow)" />
  <circle cx="186" cy="436" r="15" fill="#56F5FF" filter="url(#electronGlow)" />
  
  <circle cx="186" cy="76" r="15" fill="#56F5FF" filter="url(#electronGlow)" />
  <circle cx="326" cy="436" r="15" fill="#56F5FF" filter="url(#electronGlow)" />
  
  <!-- M letter stylized in the nucleus -->
  <path d="M350 160 L350 190 L310 190 L310 360 L270 360 L270 190 L230 190 L230 360 L190 360 L190 190 L150 190 L150 160 L350 160" 
        fill="#FFFFFF" filter="url(#nucleusGlow)" />
</svg> 